<svg xmlns="http://www.w3.org/2000/svg" viewBox="0 0 24 24" id="coca-cola">
  <path fill="#EA2F2E" d="M2 0a2 2 0 0 0-2 2v8.464c1.108.513 2.254.945 3.428 1.289s2.376.601 3.461.763c1.086.162 2.055.229 2.9.239.845.01 1.567-.038 2.259-.127a12.797 12.797 0 0 0 2.059-.429c.706-.209 1.458-.498 2.503-1.035 1.046-.537 2.386-1.322 3.367-1.787.981-.465 1.601-.609 2.212-.716.61-.107 1.21-.175 1.811-.199V2a2 2 0 0 0-2-2H2z"></path>
  <path fill="#EA2F2E" d="M0 13.843v8.182a2 2 0 0 0 2 2h20a2 2 0 0 0 2-2V10.78c-.331-.096-.667-.18-.937-.235a5.679 5.679 0 0 0-.686-.1 7.22 7.22 0 0 0-.644-.027c-.622.007-1.244.056-1.887.14-.643.084-1.307.202-2.375.642s-2.539 1.201-3.756 1.781c-1.217.581-2.179.982-3.007 1.249-.828.267-1.521.4-2.214.488a17.61 17.61 0 0 1-2.049.137 18.702 18.702 0 0 1-1.93-.084 17.987 17.987 0 0 1-2.002-.297A30.373 30.373 0 0 1 0 13.843z"></path>
  <path fill="#CC2928" d="M12 0H2a2 2 0 0 0-2 2v8.464c1.108.513 2.254.945 3.428 1.289s2.376.601 3.461.763a21.366 21.366 0 0 0 3.123.24c.731 0 1.373-.045 1.988-.122V0zm0 13.75c-.47.194-.896.352-1.292.48-.828.267-1.521.4-2.214.488a17.61 17.61 0 0 1-2.049.137l-.163.001c-.606 0-1.19-.03-1.767-.085a17.987 17.987 0 0 1-2.002-.297A30.373 30.373 0 0 1 0 13.843v8.182A2 2 0 0 0 1.684 24H12V13.75z"></path>
</svg>
